<svg xmlns="http://www.w3.org/2000/svg" xmlns:xlink="http://www.w3.org/1999/xlink" viewBox="0 0 194.91 60.22"><defs><style>.cls-1{fill:url(#radial-gradient);}.cls-2{fill:url(#linear-gradient);}.cls-3{fill:url(#linear-gradient-2);}.cls-4{fill:url(#linear-gradient-3);}.cls-5{fill:url(#linear-gradient-4);}.cls-6{fill:#007c30;}.cls-7{fill:#fff;}.cls-8{fill:#f2f2f2;}</style><radialGradient id="radial-gradient" cx="35.92" cy="29.17" r="20.75" gradientUnits="userSpaceOnUse"><stop offset="0" stop-color="#d7e597"/><stop offset="1" stop-color="#6fb92c"/></radialGradient><linearGradient id="linear-gradient" x1="-141.2" y1="4.76" x2="-107.44" y2="4.76" gradientTransform="matrix(-0.77, -0.64, -0.64, 0.77, -39.95, -50.83)" gradientUnits="userSpaceOnUse"><stop offset="0" stop-color="#e50012"/><stop offset="1" stop-color="#e75297"/></linearGradient><linearGradient id="linear-gradient-2" x1="48.18" y1="53.56" x2="48.18" y2="19.77" gradientUnits="userSpaceOnUse"><stop offset="0" stop-color="#e50012"/><stop offset="1" stop-color="#f3b3cf"/></linearGradient><linearGradient id="linear-gradient-3" x1="1.34" y1="22.55" x2="40.13" y2="22.55" gradientTransform="matrix(1, 0, 0, 1, 0, 0)" xlink:href="#linear-gradient"/><linearGradient id="linear-gradient-4" x1="20.07" y1="60.22" x2="20.07" y2="0.18" xlink:href="#linear-gradient-2"/></defs><title>资源 1</title><g id="图层_2" data-name="图层 2"><g id="logo"><g id="ico"><path class="cls-1" d="M56.52,38a45.31,45.31,0,0,1-26.79,9.36,46.23,46.23,0,0,1-5.3-.26A53.72,53.72,0,0,1,12.85,23.89,13.07,13.07,0,0,1,38.5,20.54c.17.6.61,2.77.61,2.77S41,22.08,41.58,21.7a11.1,11.1,0,0,1,6.28-1.92A11.15,11.15,0,0,1,56.52,38Z"/><path class="cls-2" d="M65.24,18.15c7.38,6.21,7.45,16.48,1.24,23.86s-13.8,9.78-21.63,10.27L57.67,39.2a12.85,12.85,0,0,0-17-18.9h0A17.47,17.47,0,0,1,65.24,18.15Z"/><path class="cls-3" d="M66.92,19.77c5,13.57-20.05,31.87-42,28.9.73.79,1.49,1.56,2.27,2.3C38.51,54.63,56,56.29,67.37,42.76A17.46,17.46,0,0,0,66.92,19.77Z"/><path class="cls-4" d="M20.07,0C9,0,1.34,9,1.34,20.07s4.91,18.81,11.43,25l-1.61-21a14.76,14.76,0,0,1,29-4h0v0A20.07,20.07,0,0,0,20.07,0Z"/><path class="cls-5" d="M40.13,60.22C13.49,50.53,1.5,9.32,17.39.18A20.07,20.07,0,0,0,0,20.07C0,47.33,29.92,58.68,40.13,60.22Z"/><path class="cls-6" d="M35,35.18c.28-.28-.51-.91-.29-1.33s.58,0,.88-.39-.13-.67-.13-1.19c0-1,2.13-.58,2.13-1.58s-1.09-2.32-1.36-3.47c.87-.09,1.09-.37,1.09-.37a4.17,4.17,0,0,1-1.12.18c0-.1,0-.2,0-.29,0-1.19,1.84-2.61,1.84-4.94,0-4.59-5-9.11-11.5-9.11S14,17.15,14,26.39s6.3,13.15,6.3,13.15c-4.88-5-5.59-8.89-5.33-13.12.12-2.08.79-5.81,2.84-8.37A11.59,11.59,0,0,1,26.48,14a12.87,12.87,0,0,1,3.11.37c2.69,2-6-.57-10.35,5.1-5.81,7.57-.93,16.38-.93,16.38s-3.49-11,2.11-16.53c4.17-4.11,12.74-2.44,11.24-4.25a11.07,11.07,0,0,1,2,1.1c2.11,2.8-7-.36-11.3,5.31-5.8,7.57-2.07,16.39-2.07,16.39s-2.35-11,3.26-16.54c4.16-4.11,11.15-1.72,11.33-4.17.23.22.35.36.35.36s.39.52,0,1.62-3.82,1.13-6.3,1.81a2.84,2.84,0,0,0-2.2,3s-2.16-1.33-3.23.67,1.07,3.88,1.07,4.62-2.17,1.62-3.2,5a7.34,7.34,0,0,0,3,8.14,18,18,0,0,1,4,4.27,9.36,9.36,0,0,0-2.88-3.84,13,13,0,0,1-3.39-3.79,6,6,0,0,1-.35-4.32c.64-2.65,3.74-4.82,3.74-5.4s-2.55-2.78-1.16-4.52c1-1.22,2.85.12,2.85.12a4.41,4.41,0,0,1,1.48-3c1.31-1,3.9-1.12,5.11-1.26a2.61,2.61,0,0,0,2.58-2.3,4.76,4.76,0,0,1,.84,3.27c-.06,2.29-1.55,3.62-1.71,4.88a1.83,1.83,0,0,0,0,.52l-.38,0a3.74,3.74,0,0,1-.19-.35,1,1,0,0,1,0-.57c-.17.08-.2.54-.1.86h0a14.28,14.28,0,0,1-1.58-.4,5.68,5.68,0,0,0,.81-.26c.52-.2,1.06-.55,1-.61s-.51.26-1.09.5c-.42.17-.86.23-1,.3s-.22,0-.25,0,.85.62,2,.73c.31,0,.57,0,.82,0a14.84,14.84,0,0,0,1.37,3.11c.19.49-.19.52-1.15.84s-.82,1.13-.79,1.65-.35.3-.73.54h0A2.42,2.42,0,0,1,33,32.52a1.87,1.87,0,0,0,1.1,1.07c-.08.32.22.8.22,1.13s-.48-.06-.84.36.21,2-1,2.39-4.2-1.81-5.2-2.2-2.68-.42-2.91,2,2.39,5.17,3.59,6.69S30,46.68,30,46.68a13.69,13.69,0,0,0-1.39-2.33,49.83,49.83,0,0,1-3.13-4.23c-1.39-2.55-.36-4.56.66-4.54,1.47,0,4.25,2.89,6.51,2.5,1.23-.21,1.13-2.13,1.13-2.48S34.7,35.45,35,35.18Z"/><path class="cls-6" d="M47.74,19.86c-5.64-.54-7.82,3.41-8.06,3.87.21-.42,2-3.5,8-3,5.69.48,8.69,5.36,8.69,10.15C56.33,41.74,46.09,42,46.09,42s11.34,0,11.34-11.08C57.43,26,53.71,20.44,47.74,19.86Z"/><path class="cls-6" d="M38.28,37.94a2.43,2.43,0,0,1-.12-2.21c.11-.3-.54-.59-.45-1.27,0-.31,1.86.39,1.95-.08.05-.25-1.62-.66-1.43-1.1s.59-.27.53-.79-.23-1-.08-1.25,1.29-.09,1.76-.57a1.82,1.82,0,0,0,.39-.92,1.57,1.57,0,0,0,.58,1.07,2.92,2.92,0,0,0,1.14.77,7.72,7.72,0,0,1-.39-.7c-.14-.32-.17-.54-.27-.53s.06.43.35.87a3,3,0,0,1-.74-.73c-.31-.44-.35-.92-.57-.9,0,0-.07,0-.09.09.1-.48.17-1,.33-1.56a3.85,3.85,0,0,1,2.21-2.4c1.06-.53,5.2-.95,7.27.35,5.34,3.34,4.24,9.32,1.61,12.17a7.8,7.8,0,0,0-1.15-12.86c-2.71-1.69-7-1-8.38-.08-2.34,1.58-2,3.9-2.62,4.87s-1.71.22-2,.77.24,1,.07,1.59-.58.42-.61.74,1.35.94,1.15.94-1.41-.35-1.5,0,.32.95.29,1.22-.72,1.89.44,3a10.51,10.51,0,0,0,3.44,1.83c.32.12,1.27.38,1.27.38-.45,1.23-1.58,2-3.66,2.6a11.57,11.57,0,0,0-5.17,2.87,13.43,13.43,0,0,1,4.94-2.38c3-.83,3.94-1.62,4.68-3.55a7.52,7.52,0,0,1-2.07-.36A5.52,5.52,0,0,1,38.28,37.94Z"/><path class="cls-6" d="M41.32,30.77s-.15.21-.15.21c-.23-.09-.35,0-.35.08s.21.1.55.2l.76.22a3.51,3.51,0,0,0-.75-.42C41.36,31,41.37,30.78,41.32,30.77Z"/><path class="cls-6" d="M42,28.57c-.06.19.37.27.63.7a5.28,5.28,0,0,1,.42.94,2.5,2.5,0,0,0-.28-1.15C42.48,28.58,42.05,28.39,42,28.57Z"/><path class="cls-6" d="M39.26,32.26c-.15-.12-.13-.43-.24-.59s-.23-.15-.25-.11.11,0,.16.16.08.52.26.64.49,0,.42-.09S39.42,32.38,39.26,32.26Z"/><path class="cls-6" d="M35.5,24.26c.27,0,.57.35.69.2s-.21-.55-.79-.61a2.45,2.45,0,0,0-1.55.58,12.32,12.32,0,0,1-1.4.77,9.81,9.81,0,0,0,1.7-.64A2,2,0,0,1,35.5,24.26Z"/><path class="cls-6" d="M36.12,30.65c-.13-.28-.59-.07-.87-.14s-.14-.39-.22-.42-.25.47.29.58S36.19,30.81,36.12,30.65Z"/><path class="cls-6" d="M49.12,34.21a1.42,1.42,0,0,0-1.66-1.94c.86.19,1.56.69,1.32,1.66-.29,1.17-2,1.5-2.86,1.59C46.68,35.81,48.75,35.58,49.12,34.21Z"/><path class="cls-6" d="M46.56,35a2.28,2.28,0,0,0,1.68-1.21A1.61,1.61,0,0,1,47,33.32a1,1,0,0,0,.83.67A2.36,2.36,0,0,1,46.56,35Z"/></g><g id="title"><path class="cls-7" d="M83.66,11a27.2,27.2,0,0,1-6.25,5.87q10.88-.37,17-1.12Q93,14.25,91.28,12.5l.5-.38A51.88,51.88,0,0,1,97.91,19l-.5.5A35.62,35.62,0,0,0,95,16.37q-7.62.89-18.75,1.25c-.33.09-.54,0-.62-.25s.08-.41.5-.5a.51.51,0,0,0,.37-.12A36,36,0,0,0,82.91,11h-9v-.75h13a18.82,18.82,0,0,0-1.75-3.38V6.25h3c.33,0,.5.08.5.25s-.17.37-.5.37H85.78a25.52,25.52,0,0,1,1.75,3.38H99V11Zm9.87,9.75a.88.88,0,0,1,1,1V34.62c0,1.84-.71,2.75-2.12,2.75H89.53l-.25-.75h2.88c1.16,0,1.75-.7,1.75-2.12V31.37H79.28V37.5h-.62V21.75a.88.88,0,0,1,1-1Zm.38,1.62a.89.89,0,0,0-1-1H80.28a.89.89,0,0,0-1,1v3.38H93.91Zm0,4.13H79.28v4.12H93.91Z"/><path class="cls-7" d="M125.28,28.75a17.62,17.62,0,0,1-4.87,5.62q4.36,1.26,9.25,3.13c.33.33.29.54-.13.62q-5-2-9.75-3.37a25.78,25.78,0,0,1-12.37,3.37l-.25-.25a.22.22,0,0,1,.25-.25,25.35,25.35,0,0,0,11.75-3c-2.17-.66-4.3-1.25-6.38-1.75-1.08-.25-1.25-.75-.5-1.5a23.89,23.89,0,0,0,2-2.62h-7.37a.5.5,0,0,1-.5-.25c-.09-.17,0-.25.37-.25h7.88c.25-.42.83-1.25,1.75-2.5a.83.83,0,0,1,.75-.38h4.12c.25,0,.38.09.38.25s-.13.25-.38.25h-3.75a.81.81,0,0,0-.75.5,10.08,10.08,0,0,0-1.37,1.88h14.75a.5.5,0,0,1,.5.25c.08.17,0,.25-.25.25Zm-12.5-16.38q0,8-1.12,9.75a7.83,7.83,0,0,1-3.88,2.5.52.52,0,0,0-.25.63q.25.26.63,0a8.2,8.2,0,0,0,4-2.75q1.25-1.87,1.25-10.13V9.5c0-.33-.13-.5-.38-.5s-.25.17-.25.5ZM110,6.87a.89.89,0,0,0-1,1V21.12c0,.25.08.38.25.38a.34.34,0,0,0,.38-.38V7.87A.32.32,0,0,1,110,7.5h6a.33.33,0,0,1,.38.37V20.62c0,.42.12.63.37.63s.25-.21.25-.63V7.87a.89.89,0,0,0-1-1Zm9.75,27.25a13.92,13.92,0,0,0,4.88-5.37h-9.75c-.42.58-1.17,1.5-2.25,2.75-.42.5-.34.79.25.87C115.24,32.87,117.53,33.46,119.78,34.12Zm-5.37-13-.5-.12a.31.31,0,0,0,0,.5,26.85,26.85,0,0,1,3.75,3.25.31.31,0,0,0,.5,0c.16-.08.16-.21,0-.38A25.63,25.63,0,0,0,114.41,21.12Zm9.75-8.75q0,7.88-1.13,9.63a7.1,7.1,0,0,1-3.75,2.5.24.24,0,0,0-.12.37l.5.13a9,9,0,0,0,3.87-2.63q1.25-1.87,1.25-10v-3a.32.32,0,0,0-.37-.37c-.17,0-.25.12-.25.37Zm-2.75-5.5a.89.89,0,0,0-1,1V21.12c0,.42.12.63.37.63s.25-.21.25-.63V7.87a.33.33,0,0,1,.38-.37h6c.33,0,.5.12.5.37V21.12c0,.42.08.63.25.63s.37-.21.37-.63V7.87a.89.89,0,0,0-1-1Zm3.75,14.75c-.17.09-.17.21,0,.38a26.12,26.12,0,0,1,4.37,3.37.63.63,0,0,0,.63.13.63.63,0,0,0-.13-.63,31.28,31.28,0,0,0-4.5-3.25Z"/><path class="cls-7" d="M144.78,29.12a54.06,54.06,0,0,1,4.38,4.63c.08.33,0,.5-.38.5q-1.87-2.25-4.25-4.63a26.44,26.44,0,0,1-6.5,8.25c-.33,0-.46-.12-.37-.37A25,25,0,0,0,144,29.25q-.75-.75-4.25-3.75a.77.77,0,0,1-.25-1q1.13-4.5,2-9.88h-3.75c-.25,0-.37-.08-.37-.25s.12-.25.37-.25h3.88q.5-2.74,1-6.5a.9.9,0,0,1,1-.87H146c.33,0,.5.08.5.25s-.17.25-.5.25h-1.87a.9.9,0,0,0-1,.87q-.63,4.64-.88,6h5.88v.5A41.37,41.37,0,0,1,144.78,29.12Zm-.5-.5a39.26,39.26,0,0,0,3.25-14h-5.37q-1.12,6.26-2.13,10V25Q142.4,27,144.28,28.62Zm4.38-3.25q-.51.38,0,.75h10.5q.5-.37,0-.75ZM151,19.12c-.17.75.17,1.13,1,1.13h9.25c.67,0,1,.37,1,1.12q0,12.75-.87,14.38c-.5,1.08-2.09,1.62-4.75,1.62h-2.5q-.37.38.12.63h2.5q3.75,0,5-1.5,1-1.5,1.13-15.63c0-.75-.34-1.12-1-1.12h-2.38L161,9c.17-.83-.17-1.25-1-1.25h-10.5c-.33.25-.33.46,0,.62h9.75c1-.08,1.38.3,1.13,1.13L159,19.75h-6.37c-.84,0-1.17-.42-1-1.25l1.25-7.25c-.09-.25-.25-.25-.5,0Z"/><path class="cls-7" d="M176.78,29.12a54.06,54.06,0,0,1,4.38,4.63c.08.33,0,.5-.38.5q-1.87-2.25-4.25-4.63a26.44,26.44,0,0,1-6.5,8.25c-.33,0-.46-.12-.37-.37A25,25,0,0,0,176,29.25q-.75-.75-4.25-3.75a.77.77,0,0,1-.25-1q1.13-4.5,2-9.88h-3.75c-.25,0-.37-.08-.37-.25s.12-.25.37-.25h3.88q.5-2.74,1-6.5a.9.9,0,0,1,1-.87H178c.33,0,.5.08.5.25s-.17.25-.5.25h-1.87a.9.9,0,0,0-1,.87q-.63,4.64-.88,6h5.88v.5A41.37,41.37,0,0,1,176.78,29.12Zm-.5-.5a39.26,39.26,0,0,0,3.25-14h-5.37q-1.12,6.26-2.13,10V25Q174.4,27,176.28,28.62Zm4.38-3.25q-.51.38,0,.75h10.5q.5-.37,0-.75ZM183,19.12c-.17.75.17,1.13,1,1.13h9.25c.67,0,1,.37,1,1.12q0,12.75-.87,14.38c-.5,1.08-2.09,1.62-4.75,1.62h-2.5q-.37.38.12.63h2.5q3.75,0,5-1.5,1-1.5,1.13-15.63c0-.75-.34-1.12-1-1.12h-2.38L193,9c.17-.83-.17-1.25-1-1.25h-10.5c-.33.25-.33.46,0,.62h9.75c1-.08,1.38.3,1.13,1.13L191,19.75h-6.37c-.84,0-1.17-.42-1-1.25l1.25-7.25c-.09-.25-.25-.25-.5,0Z"/></g><g id="domain"><path class="cls-8" d="M79.25,51.43a4.22,4.22,0,0,1-.85,1.41,1.66,1.66,0,0,1-1.21.45,1.53,1.53,0,0,1-.54-.09v-.63a1.67,1.67,0,0,0,.58.1c.55,0,1-.39,1.32-1.17l.66-1.56-2.66-7h.7l2.12,5.72c0,.12.08.21.1.28a1.32,1.32,0,0,0,0,.23h0l.16-.47L82,43h.69Z"/><path class="cls-8" d="M90.66,50V48.72h0a2.4,2.4,0,0,1-2.26,1.45c-1.66,0-2.49-1-2.49-3.13V43h.64v3.9A3.52,3.52,0,0,0,87,49a1.69,1.69,0,0,0,1.48.64,2,2,0,0,0,1.58-.72A2.85,2.85,0,0,0,90.66,47V43h.63v7Z"/><path class="cls-8" d="M97.38,51.43a4.06,4.06,0,0,1-.84,1.41,1.66,1.66,0,0,1-1.21.45,1.53,1.53,0,0,1-.54-.09v-.63a1.67,1.67,0,0,0,.58.1c.55,0,1-.39,1.32-1.17l.66-1.56-2.66-7h.7l2.12,5.72c0,.12.07.21.1.28a1.32,1.32,0,0,0,0,.23h0l.16-.47L100.12,43h.69Z"/><path class="cls-8" d="M104.47,41.21a.49.49,0,0,1-.36-.15.53.53,0,0,1-.16-.38.51.51,0,0,1,.16-.37.51.51,0,0,1,.36-.14.58.58,0,0,1,.38.13.5.5,0,0,1,.16.38.49.49,0,0,1-.16.37A.51.51,0,0,1,104.47,41.21ZM104.16,50V43h.63v7Z"/><path class="cls-8" d="M114,50V45.91c0-1.68-.61-2.52-1.82-2.52a2.11,2.11,0,0,0-1.67.74,2.66,2.66,0,0,0-.65,1.84v4h-.63V43h.63v1.28h0a2.53,2.53,0,0,1,2.4-1.45,2.1,2.1,0,0,1,1.74.76,3.39,3.39,0,0,1,.6,2.16V50Z"/><path class="cls-8" d="M124.44,49.48a4.15,4.15,0,0,1-.86,2.9,3.56,3.56,0,0,1-2.69.91,4.59,4.59,0,0,1-2.09-.53v-.65a4.34,4.34,0,0,0,2.1.61c1.94,0,2.91-1,2.91-3.07v-.91h0a2.74,2.74,0,0,1-2.53,1.43,2.65,2.65,0,0,1-2.11-.94,3.83,3.83,0,0,1-.82-2.62,4.14,4.14,0,0,1,.88-2.74,2.89,2.89,0,0,1,2.34-1.06,2.36,2.36,0,0,1,2.24,1.28h0V43h.63Zm-.63-3.8a2.33,2.33,0,0,0-.63-1.62,2.1,2.1,0,0,0-1.63-.67,2.28,2.28,0,0,0-1.87.87,3.51,3.51,0,0,0-.7,2.3,3.47,3.47,0,0,0,.64,2.24,2.1,2.1,0,0,0,1.71.79,2.33,2.33,0,0,0,1.81-.73,2.6,2.6,0,0,0,.67-1.79Z"/><path class="cls-8" d="M137.62,50V45.78a3.08,3.08,0,0,0-.41-1.86,1.54,1.54,0,0,0-1.31-.53,1.82,1.82,0,0,0-1.44.71,2.67,2.67,0,0,0-.6,1.79V50h-.63V45.73c0-1.56-.59-2.34-1.78-2.34a1.75,1.75,0,0,0-1.43.71,2.91,2.91,0,0,0-.57,1.86v4h-.63V43h.63v1.17h0a2.31,2.31,0,0,1,2.15-1.34,2,2,0,0,1,1.31.44,2.19,2.19,0,0,1,.74,1.16,2.71,2.71,0,0,1,.94-1.18,2.3,2.3,0,0,1,1.33-.42c1.54,0,2.3.95,2.3,2.85V50Z"/><path class="cls-8" d="M146.69,50V48.6h0a2.7,2.7,0,0,1-1,1.14,2.5,2.5,0,0,1-1.43.43,2.19,2.19,0,0,1-1.58-.56,1.89,1.89,0,0,1-.59-1.42c0-1.23.82-2,2.44-2.22l2.16-.32c0-1.51-.57-2.26-1.7-2.26a3.5,3.5,0,0,0-2.26.93v-.76a3.18,3.18,0,0,1,1.06-.53,4,4,0,0,1,1.26-.22,2.13,2.13,0,0,1,1.68.67,2.9,2.9,0,0,1,.59,2V50Zm-1.93-3.5a3.42,3.42,0,0,0-1.55.51,1.6,1.6,0,0,0,0,2.18,1.6,1.6,0,0,0,1.16.4,2.17,2.17,0,0,0,1.69-.75,2.8,2.8,0,0,0,.67-1.93v-.69Z"/><path class="cls-8" d="M160.37,50V45.78a3.07,3.07,0,0,0-.42-1.86,1.54,1.54,0,0,0-1.31-.53,1.8,1.8,0,0,0-1.43.71,2.63,2.63,0,0,0-.61,1.79V50H156V45.73c0-1.56-.59-2.34-1.78-2.34a1.75,1.75,0,0,0-1.43.71,2.91,2.91,0,0,0-.57,1.86v4h-.63V43h.63v1.17h0a2.31,2.31,0,0,1,2.15-1.34,2,2,0,0,1,1.31.44,2.13,2.13,0,0,1,.74,1.16,2.71,2.71,0,0,1,.94-1.18,2.3,2.3,0,0,1,1.33-.42q2.31,0,2.31,2.85V50Z"/><path class="cls-8" d="M169.43,50V48.6h0a2.72,2.72,0,0,1-1,1.14,2.47,2.47,0,0,1-1.42.43,2.22,2.22,0,0,1-1.59-.56,1.88,1.88,0,0,1-.58-1.42q0-1.84,2.43-2.22l2.16-.32c0-1.51-.57-2.26-1.7-2.26a3.46,3.46,0,0,0-2.25.93v-.76a3.22,3.22,0,0,1,1.05-.53,4,4,0,0,1,1.26-.22,2.1,2.1,0,0,1,1.68.67,2.9,2.9,0,0,1,.59,2V50Zm-1.93-3.5A3.52,3.52,0,0,0,166,47a1.39,1.39,0,0,0-.45,1.16,1.36,1.36,0,0,0,.42,1,1.59,1.59,0,0,0,1.16.4,2.17,2.17,0,0,0,1.68-.75,2.75,2.75,0,0,0,.67-1.93v-.69Z"/><path class="cls-8" d="M174.74,50.12a.55.55,0,0,1-.55-.55.54.54,0,0,1,.16-.4.53.53,0,0,1,.39-.15.59.59,0,0,1,.4.15.54.54,0,0,1,.16.4.5.5,0,0,1-.16.39A.55.55,0,0,1,174.74,50.12Z"/><path class="cls-8" d="M184.1,49.69a3.49,3.49,0,0,1-1.87.48,2.94,2.94,0,0,1-2.3-1,3.72,3.72,0,0,1-.88-2.58,3.93,3.93,0,0,1,1-2.74,3.31,3.31,0,0,1,2.54-1.06,3.75,3.75,0,0,1,1.55.33v.71a3,3,0,0,0-1.65-.46,2.5,2.5,0,0,0-2,.88,3.37,3.37,0,0,0-.77,2.3,3.3,3.3,0,0,0,.7,2.2,2.32,2.32,0,0,0,1.86.82A3.07,3.07,0,0,0,184.1,49Z"/><path class="cls-8" d="M192.69,50V45.91c0-1.68-.6-2.52-1.82-2.52a2.12,2.12,0,0,0-1.67.74,2.7,2.7,0,0,0-.65,1.84v4h-.63V43h.63v1.28h0a2.53,2.53,0,0,1,2.4-1.45,2.08,2.08,0,0,1,1.74.76,3.39,3.39,0,0,1,.6,2.16V50Z"/></g></g></g></svg>